# xmcd CD database file
#
# Track frame offsets:
#	150
#	21587
#	62507
#	113840
#	135751
#	159472
#	199091
#	236500
#	275531
#
# Disc length: 4409 seconds
#
# Revision: 2
# Processed by: cddbd v1.5.2PL0 Copyright (c) Steve Scherf et al.
# Submitted via: CDex 1.51
#
DISCID=74113709
DTITLE=Anima - Sacred Alliance
DYEAR=2014
DGENRE=New Age
TTITLE0=Great Mother's Dominion
TTITLE1=Surrender
TTITLE2=Sewa
TTITLE3=Sacred Lands
TTITLE4=Offering
TTITLE5=Camino de Pedro
TTITLE6=Gonawindua
TTITLE7=Kogi Transmission
TTITLE8=Ancestral Fathers Of The Stars
EXTD=YEAR: 2014
EXTT0=
EXTT1=
EXTT2=
EXTT3=
EXTT4=
EXTT5=
EXTT6=
EXTT7=
EXTT8=
PLAYORDER=
